<?xml version="1.0" standalone="no"?>
<!DOCTYPE svg PUBLIC "-//W3C//DTD SVG 20010904//EN"
 "http://www.w3.org/TR/2001/REC-SVG-20010904/DTD/svg10.dtd">
<svg version="1.0" xmlns="http://www.w3.org/2000/svg"
 width="70.000000pt" height="70.000000pt" viewBox="0 0 70.000000 70.000000"
 preserveAspectRatio="xMidYMid meet">
<metadata>
Created by potrace 1.14, written by Peter Selinger 2001-2017
</metadata>
<g transform="translate(0.000000,70.000000) scale(0.100000,-0.100000)"
fill="#000000" stroke="none">
<path d="M0 350 l0 -350 350 0 350 0 0 350 0 350 -350 0 -350 0 0 -350z m350
20 c0 -13 7 -20 20 -20 13 0 20 -7 20 -20 0 -15 7 -20 25 -20 20 0 25 -5 25
-25 0 -18 5 -25 20 -25 18 0 20 -7 20 -65 0 -58 -2 -65 -20 -65 -13 0 -20 -7
-20 -20 0 -17 -7 -20 -45 -20 -38 0 -45 3 -45 20 0 18 -7 20 -65 20 l-65 0 0
65 c0 58 2 65 20 65 17 0 20 7 20 45 0 41 2 45 25 45 18 0 25 5 25 20 0 13 7
20 20 20 13 0 20 -7 20 -20z"/>
</g>
</svg>
